<svg aria-hidden="true" style="position:absolute;width:0;height:0;overflow:hidden" xmlns="http://www.w3.org/2000/svg">
    <defs>
        <symbol id="icon-home" viewBox="0 0 32 32">
          <path d="m32 19-6-6V4h-4v5l-6-6L0 19v1h4v10h10v-6h4v6h10V20h4z"/>
        </symbol>
        <symbol id="icon-menu" viewBox="0 0 32 32">
          <path d="M2 6h28v6H2zm0 8h28v6H2zm0 8h28v6H2z"/>
        </symbol>
         <symbol id="icon-facebook2" viewBox="0 0 32 32">
            <path d="M29 0H3C1.35 0 0 1.35 0 3v26c0 1.65 1.35 3 3 3h13V18h-4v-4h4v-2c0-3.306 2.694-6 6-6h4v4h-4c-1.1 0-2 .9-2 2v2h6l-1 4h-5v14h9c1.65 0 3-1.35 3-3V3c0-1.65-1.35-3-3-3z"/>
        </symbol>
        <symbol id="icon-user-tie" viewBox="0 0 32 32">
            <path d="M10 6a6 6 0 1 1 12 0 6 6 0 0 1-12 0zm14.002 8h-1.107l-6.222 12.633L19 15l-3-3-3 3 2.327 11.633L9.105 14H7.998C4 14 4 16.687 4 20v10h24V20c0-3.313 0-6-3.998-6z"/>
        </symbol>
        <symbol id="icon-trophy" viewBox="0 0 32 32">
            <path d="M26 6V2H6v4H0v4a6 6 0 0 0 7.801 5.725A10.006 10.006 0 0 0 14 19.8V26h-2a4 4 0 0 0-4 4h16a4 4 0 0 0-4-4h-2v-6.2a10.006 10.006 0 0 0 6.199-4.075A6 6 0 0 0 32 10V6h-6zM6 13.625A3.629 3.629 0 0 1 2.375 10V8H6v2c0 1.256.232 2.457.655 3.565-.213.039-.431.06-.655.06zM29.625 10a3.629 3.629 0 0 1-4.28 3.565A9.968 9.968 0 0 0 26 10V8h3.625v2z"/>
        </symbol>
        <symbol id="icon-briefcase" viewBox="0 0 32 32">
            <path d="M30 8h-8V6c0-1.1-.9-2-2-2h-8c-1.1 0-2 .9-2 2v2H2c-1.1 0-2 .9-2 2v18c0 1.1.9 2 2 2h28c1.1 0 2-.9 2-2V10c0-1.1-.9-2-2-2zM12 6.004 12.004 6h7.993l.004.004V8h-8V6.004zM30 16h-4v3c0 .55-.45 1-1 1h-2c-.55 0-1-.45-1-1v-3H10v3c0 .55-.45 1-1 1H7c-.55 0-1-.45-1-1v-3H2v-2h28v2z"/>
        </symbol>
        <symbol id="icon-embed2" viewBox="0 0 40 32">
            <path d="m26 23 3 3 10-10L29 6l-3 3 7 7zM14 9l-3-3L1 16l10 10 3-3-7-7zM21.916 4.704l2.171.592-6 22.001-2.171-.592 6-22.001z"/>
        </symbol>
        <symbol id="icon-instagram" viewBox="0 0 32 32">
            <path d="M16 2.881c4.275 0 4.781.019 6.462.094 1.563.069 2.406.331 2.969.55a4.952 4.952 0 0 1 1.837 1.194 5.015 5.015 0 0 1 1.2 1.838c.219.563.481 1.412.55 2.969.075 1.688.094 2.194.094 6.463s-.019 4.781-.094 6.463c-.069 1.563-.331 2.406-.55 2.969a4.94 4.94 0 0 1-1.194 1.837 5.02 5.02 0 0 1-1.837 1.2c-.563.219-1.413.481-2.969.55-1.688.075-2.194.094-6.463.094s-4.781-.019-6.463-.094c-1.563-.069-2.406-.331-2.969-.55a4.952 4.952 0 0 1-1.838-1.194 5.02 5.02 0 0 1-1.2-1.837c-.219-.563-.481-1.413-.55-2.969-.075-1.688-.094-2.194-.094-6.463s.019-4.781.094-6.463c.069-1.563.331-2.406.55-2.969a4.964 4.964 0 0 1 1.194-1.838 5.015 5.015 0 0 1 1.838-1.2c.563-.219 1.412-.481 2.969-.55 1.681-.075 2.188-.094 6.463-.094zM16 0c-4.344 0-4.887.019-6.594.094-1.7.075-2.869.35-3.881.744-1.056.412-1.95.956-2.837 1.85a7.833 7.833 0 0 0-1.85 2.831C.444 6.538.169 7.7.094 9.4.019 11.113 0 11.656 0 16s.019 4.887.094 6.594c.075 1.7.35 2.869.744 3.881.413 1.056.956 1.95 1.85 2.837a7.82 7.82 0 0 0 2.831 1.844c1.019.394 2.181.669 3.881.744 1.706.075 2.25.094 6.594.094s4.888-.019 6.594-.094c1.7-.075 2.869-.35 3.881-.744 1.05-.406 1.944-.956 2.831-1.844s1.438-1.781 1.844-2.831c.394-1.019.669-2.181.744-3.881.075-1.706.094-2.25.094-6.594s-.019-4.887-.094-6.594c-.075-1.7-.35-2.869-.744-3.881a7.506 7.506 0 0 0-1.831-2.844A7.82 7.82 0 0 0 26.482.843C25.463.449 24.301.174 22.601.099c-1.712-.081-2.256-.1-6.6-.1z"/>
            <path d="M16 7.781c-4.537 0-8.219 3.681-8.219 8.219s3.681 8.219 8.219 8.219 8.219-3.681 8.219-8.219A8.221 8.221 0 0 0 16 7.781zm0 13.55a5.331 5.331 0 1 1 0-10.663 5.331 5.331 0 0 1 0 10.663zM26.462 7.456a1.919 1.919 0 1 1-3.838 0 1.919 1.919 0 0 1 3.838 0z"/>
        </symbol>
        <symbol id="icon-linkedin2" viewBox="0 0 32 32">
            <path d="M12 12h5.535v2.837h.079c.77-1.381 2.655-2.837 5.464-2.837C28.92 12 30 15.637 30 20.367V30h-5.769v-8.54c0-2.037-.042-4.657-3.001-4.657-3.005 0-3.463 2.218-3.463 4.509V30H12V12zM2 12h6v18H2V12zM8 7a3 3 0 1 1-6 0 3 3 0 0 1 6 0z"/>
        </symbol>
         <symbol id="icon-send-mail" viewBox="0 0 32 32">
            <path d="M2.68 28L30.67 16 2.68 4 2.67 13.33l20 2.67-20 2.67z"/>
        </symbol>
        <symbol id="icon-javascript" viewBox="0 0 512 512">
            <path d="M32 32v448h448V32Zm240 348c0 43.61-25.76 64.87-63.05 64.87-33.68 0-53.23-17.44-63.15-38.49l34.28-20.75c6.61 11.73 11.63 21.65 26.06 21.65 12 0 21.86-5.41 21.86-26.46V240h44Zm99.35 63.87c-39.09 0-64.35-17.64-76.68-42L329 382c9 14.74 20.75 24.56 41.5 24.56 17.44 0 27.57-7.72 27.57-19.75 0-14.43-10.43-19.54-29.68-28l-10.52-4.52c-30.38-12.92-50.52-29.16-50.52-63.45 0-31.57 24.05-54.63 61.64-54.63 26.77 0 46 8.32 59.85 32.68L396 290c-7.22-12.93-15-18-27.06-18-12.33 0-20.15 7.82-20.15 18 0 12.63 7.82 17.74 25.86 25.56l10.52 4.51c35.79 15.34 55.94 31 55.94 66.16.01 37.9-29.76 57.64-69.76 57.64Z"/>
        </symbol>
        <symbol id="icon-css" viewBox="14 0 197 224.7">
            <path d="M14 2.7c0 1.5 3.8 45.5 8.5 97.8 4.6 52.2 8.6 96.5 8.7 98.4l.3 3.4L72 213.5l40.4 11.2 8.1-2.2c4.4-1.2 22.5-6.2 40.3-11.1 27.6-7.6 32.3-9.2 32.7-10.9C194 198.1 211 5.4 211 2.2V0H14zm160.7 42.5c-.4 2.4-3 30.8-5.8 63.3-2.9 32.4-5.3 59.2-5.5 59.4-.4.5-49.5 14.1-50.9 14.1-1 0-27.8-7.3-46.1-12.5l-5.1-1.5-1.2-13.2c-.6-7.3-1.4-16.1-1.8-19.6l-.6-6.2h12.5c14.1 0 13.7-.2 13.8 8.5 0 2.2.3 5.6.6 7.6l.6 3.6 13.7 3.6 13.6 3.6 13.5-3.6c7.4-2 13.6-3.7 13.6-3.7.1-.1.7-6 1.3-13.1.6-7.2 1.3-14.2 1.6-15.8l.5-2.7H57.2l-.5-2.3c-.3-1.2-.9-7-1.3-13L54.7 91h90.1l.6-6.8c.4-3.7 1-9.4 1.3-12.6.4-4.1.3-5.7-.5-5.2-.6.3-21.9.3-47.5-.1l-46.5-.6-.6-7.1c-.4-3.9-.9-9.5-1.2-12.4l-.6-5.2h125.4z"/>
        </symbol>
        <!-- <symbol id="icon-css" viewBox="0 0 32 32">
            <path fill="#232323" d="M27.377 28.889 16.001 32 4.625 28.889 2 0h28.002z"/><path fill="#3b3b3b" d="M16 2v27.75l9.232-2.742L27.688 2z"/><path fill="#FFF" d="M24.363 6H7.607L8 10h8l-7.75 2.99.369 4.01h10.883l-.344 4-3.158.99-3.139-1.006L12.533 19h-3.73l.459 4.987L16 25.99l6.728-2.004.991-10.996h-7.693L24 10z"/>
        </symbol> -->
        <symbol id="icon-react" viewBox="0 0 24 24">
            <path d="M12 9.861a2.139 2.139 0 1 0 0 4.278 2.139 2.139 0 1 0 0-4.278zm-5.992 6.394-.472-.12C2.018 15.246 0 13.737 0 11.996s2.018-3.25 5.536-4.139l.472-.119.133.468a23.53 23.53 0 0 0 1.363 3.578l.101.213-.101.213a23.307 23.307 0 0 0-1.363 3.578l-.133.467zM5.317 8.95c-2.674.751-4.315 1.9-4.315 3.046 0 1.145 1.641 2.294 4.315 3.046a24.95 24.95 0 0 1 1.182-3.046A24.752 24.752 0 0 1 5.317 8.95zm12.675 7.305-.133-.469a23.357 23.357 0 0 0-1.364-3.577l-.101-.213.101-.213a23.42 23.42 0 0 0 1.364-3.578l.133-.468.473.119c3.517.889 5.535 2.398 5.535 4.14s-2.018 3.25-5.535 4.139l-.473.12zm-.491-4.259c.48 1.039.877 2.06 1.182 3.046 2.675-.752 4.315-1.901 4.315-3.046 0-1.146-1.641-2.294-4.315-3.046a24.788 24.788 0 0 1-1.182 3.046zM5.31 8.945l-.133-.467C4.188 4.992 4.488 2.494 6 1.622c1.483-.856 3.864.155 6.359 2.716l.34.349-.34.349a23.552 23.552 0 0 0-2.422 2.967l-.135.193-.235.02a23.657 23.657 0 0 0-3.785.61l-.472.119zm1.896-6.63c-.268 0-.505.058-.705.173-.994.573-1.17 2.565-.485 5.253a25.122 25.122 0 0 1 3.233-.501 24.847 24.847 0 0 1 2.052-2.544c-1.56-1.519-3.037-2.381-4.095-2.381zm9.589 20.362c-.001 0-.001 0 0 0-1.425 0-3.255-1.073-5.154-3.023l-.34-.349.34-.349a23.53 23.53 0 0 0 2.421-2.968l.135-.193.234-.02a23.63 23.63 0 0 0 3.787-.609l.472-.119.134.468c.987 3.484.688 5.983-.824 6.854a2.38 2.38 0 0 1-1.205.308zm-4.096-3.381c1.56 1.519 3.037 2.381 4.095 2.381h.001c.267 0 .505-.058.704-.173.994-.573 1.171-2.566.485-5.254a25.02 25.02 0 0 1-3.234.501 24.674 24.674 0 0 1-2.051 2.545zM18.69 8.945l-.472-.119a23.479 23.479 0 0 0-3.787-.61l-.234-.02-.135-.193a23.414 23.414 0 0 0-2.421-2.967l-.34-.349.34-.349C14.135 1.778 16.515.767 18 1.622c1.512.872 1.812 3.37.824 6.855l-.134.468zM14.75 7.24c1.142.104 2.227.273 3.234.501.686-2.688.509-4.68-.485-5.253-.988-.571-2.845.304-4.8 2.208A24.849 24.849 0 0 1 14.75 7.24zM7.206 22.677A2.38 2.38 0 0 1 6 22.369c-1.512-.871-1.812-3.369-.823-6.854l.132-.468.472.119c1.155.291 2.429.496 3.785.609l.235.02.134.193a23.596 23.596 0 0 0 2.422 2.968l.34.349-.34.349c-1.898 1.95-3.728 3.023-5.151 3.023zm-1.19-6.427c-.686 2.688-.509 4.681.485 5.254.987.563 2.843-.305 4.8-2.208a24.998 24.998 0 0 1-2.052-2.545 24.976 24.976 0 0 1-3.233-.501zm5.984.628c-.823 0-1.669-.036-2.516-.106l-.235-.02-.135-.193a30.388 30.388 0 0 1-1.35-2.122 30.354 30.354 0 0 1-1.166-2.228l-.1-.213.1-.213a30.3 30.3 0 0 1 1.166-2.228c.414-.716.869-1.43 1.35-2.122l.135-.193.235-.02a29.785 29.785 0 0 1 5.033 0l.234.02.134.193a30.006 30.006 0 0 1 2.517 4.35l.101.213-.101.213a29.6 29.6 0 0 1-2.517 4.35l-.134.193-.234.02c-.847.07-1.694.106-2.517.106zm-2.197-1.084c1.48.111 2.914.111 4.395 0a29.006 29.006 0 0 0 2.196-3.798 28.585 28.585 0 0 0-2.197-3.798 29.031 29.031 0 0 0-4.394 0 28.477 28.477 0 0 0-2.197 3.798 29.114 29.114 0 0 0 2.197 3.798z"/>    
        </symbol>
        <symbol id="icon-mongodb" viewBox="0 0 24 24">
            <path d="M17.193 9.555c-1.264-5.58-4.252-7.414-4.573-8.115-.28-.394-.53-.954-.735-1.44-.036.495-.055.685-.523 1.184-.723.566-4.438 3.682-4.74 10.02-.282 5.912 4.27 9.435 4.888 9.884l.07.05A73.49 73.49 0 0111.91 24h.481c.114-1.032.284-2.056.51-3.07.417-.296.604-.463.85-.693a11.342 11.342 0 003.639-8.464c.01-.814-.103-1.662-.197-2.218zm-5.336 8.195s0-8.291.275-8.29c.213 0 .49 10.695.49 10.695-.381-.045-.765-1.76-.765-2.405z"/>
        </symbol>
        <symbol id="icon-nodejs" viewBox="0 0 24 24">
            <path d="M11.998,24c-0.321,0-0.641-0.084-0.922-0.247l-2.936-1.737c-0.438-0.245-0.224-0.332-0.08-0.383 c0.585-0.203,0.703-0.25,1.328-0.604c0.065-0.037,0.151-0.023,0.218,0.017l2.256,1.339c0.082,0.045,0.197,0.045,0.272,0l8.795-5.076 c0.082-0.047,0.134-0.141,0.134-0.238V6.921c0-0.099-0.053-0.192-0.137-0.242l-8.791-5.072c-0.081-0.047-0.189-0.047-0.271,0 L3.075,6.68C2.99,6.729,2.936,6.825,2.936,6.921v10.15c0,0.097,0.054,0.189,0.139,0.235l2.409,1.392 c1.307,0.654,2.108-0.116,2.108-0.89V7.787c0-0.142,0.114-0.253,0.256-0.253h1.115c0.139,0,0.255,0.112,0.255,0.253v10.021 c0,1.745-0.95,2.745-2.604,2.745c-0.508,0-0.909,0-2.026-0.551L2.28,18.675c-0.57-0.329-0.922-0.945-0.922-1.604V6.921 c0-0.659,0.353-1.275,0.922-1.603l8.795-5.082c0.557-0.315,1.296-0.315,1.848,0l8.794,5.082c0.57,0.329,0.924,0.944,0.924,1.603 v10.15c0,0.659-0.354,1.273-0.924,1.604l-8.794,5.078C12.643,23.916,12.324,24,11.998,24z M19.099,13.993 c0-1.9-1.284-2.406-3.987-2.763c-2.731-0.361-3.009-0.548-3.009-1.187c0-0.528,0.235-1.233,2.258-1.233 c1.807,0,2.473,0.389,2.747,1.607c0.024,0.115,0.129,0.199,0.247,0.199h1.141c0.071,0,0.138-0.031,0.186-0.081 c0.048-0.054,0.074-0.123,0.067-0.196c-0.177-2.098-1.571-3.076-4.388-3.076c-2.508,0-4.004,1.058-4.004,2.833 c0,1.925,1.488,2.457,3.895,2.695c2.88,0.282,3.103,0.703,3.103,1.269c0,0.983-0.789,1.402-2.642,1.402 c-2.327,0-2.839-0.584-3.011-1.742c-0.02-0.124-0.126-0.215-0.253-0.215h-1.137c-0.141,0-0.254,0.112-0.254,0.253 c0,1.482,0.806,3.248,4.655,3.248C17.501,17.007,19.099,15.91,19.099,13.993z"/>
        </symbol>
        <symbol id="icon-figma" viewBox="0 0 35 35">
            <path d="M22.92 13.42H12.08a6.59 6.59 0 0 1 0-13.17h10.84a6.59 6.59 0 0 1 0 13.17ZM12.08 2.75a4.09 4.09 0 0 0 0 8.17h10.84a4.09 4.09 0 0 0 0-8.17Z"/><path d="M17.42 24.08h-5.34a6.58 6.58 0 0 1 0-13.16 1.25 1.25 0 0 1 0 2.5 4.08 4.08 0 0 0 0 8.16h4.09v-9.41a1.25 1.25 0 0 1 2.5 0v10.66a1.25 1.25 0 0 1-1.25 1.25Z"/><path d="M12.16 34.75a6.59 6.59 0 1 1 0-13.17 1.25 1.25 0 0 1 0 2.5 4.09 4.09 0 1 0 4.08 4.09v-5.34a1.25 1.25 0 0 1 2.5 0v5.34a6.59 6.59 0 0 1-6.58 6.58Z"/><path d="M22.83 24.25a6.67 6.67 0 1 1 6.67-6.67 6.67 6.67 0 0 1-6.67 6.67Zm0-10.83A4.17 4.17 0 1 0 27 17.58a4.17 4.17 0 0 0-4.17-4.16Z"/><path d="M17.42 13.42a1.25 1.25 0 0 1-1.24-1.26l.08-10.67A1.25 1.25 0 0 1 17.5.25a1.25 1.25 0 0 1 1.24 1.26l-.08 10.67a1.26 1.26 0 0 1-1.24 1.24Z"/>
        </symbol>
        <symbol id="icon-photoshop" viewBox="0 0 24 24">
            <path d="M9.85 8.42c-.37-.15-.77-.21-1.18-.2-.26 0-.49 0-.68.01-.2-.01-.34 0-.41.01v3.36c.14.01.27.02.39.02h.53c.39 0 .78-.06 1.15-.18.32-.09.6-.28.82-.53.21-.25.31-.59.31-1.03.01-.31-.07-.62-.23-.89-.17-.26-.41-.46-.7-.57zM19.75.3H4.25C1.9.3 0 2.2 0 4.55v14.899c0 2.35 1.9 4.25 4.25 4.25h15.5c2.35 0 4.25-1.9 4.25-4.25V4.55C24 2.2 22.1.3 19.75.3zm-7.391 11.65c-.399.56-.959.98-1.609 1.22-.68.25-1.43.34-2.25.34-.24 0-.4 0-.5-.01s-.24-.01-.43-.01v3.209c.01.07-.04.131-.11.141H5.52c-.08 0-.12-.041-.12-.131V6.42c0-.07.03-.11.1-.11.17 0 .33 0 .56-.01.24-.01.49-.01.76-.02s.56-.01.87-.02c.31-.01.61-.01.91-.01.82 0 1.5.1 2.06.31.5.17.96.45 1.34.82.32.32.57.71.73 1.14.149.42.229.85.229 1.3.001.86-.199 1.57-.6 2.13zm7.091 3.89c-.28.4-.671.709-1.12.891-.49.209-1.09.318-1.811.318-.459 0-.91-.039-1.359-.129-.35-.061-.7-.17-1.02-.32-.07-.039-.121-.109-.111-.189v-1.74c0-.029.011-.07.041-.09.029-.02.06-.01.09.01.39.23.8.391 1.24.49.379.1.779.15 1.18.15.38 0 .65-.051.83-.141.16-.07.27-.24.27-.42 0-.141-.08-.27-.24-.4-.16-.129-.489-.279-.979-.471-.51-.18-.979-.42-1.42-.719-.31-.221-.569-.51-.761-.85-.159-.32-.239-.67-.229-1.021 0-.43.12-.84.341-1.21.25-.4.619-.72 1.049-.92.469-.239 1.059-.349 1.769-.349.41 0 .83.03 1.24.09.3.04.59.12.86.23.039.01.08.05.1.09.01.04.02.08.02.12v1.63c0 .04-.02.08-.05.1-.09.02-.14.02-.18 0-.3-.16-.62-.27-.96-.34-.37-.08-.74-.13-1.12-.13-.2-.01-.41.02-.601.07-.129.03-.24.1-.31.2-.05.08-.08.18-.08.27s.04.18.101.26c.09.11.209.2.34.27.229.12.47.23.709.33.541.18 1.061.43 1.541.73.33.209.6.49.789.83.16.318.24.67.23 1.029.011.471-.129.94-.389 1.331z"/>
        </symbol>
        <symbol id="icon-github" viewBox="0 0 24 24">
            <path d="M12 .297c-6.63 0-12 5.373-12 12 0 5.303 3.438 9.8 8.205 11.385.6.113.82-.258.82-.577 0-.285-.01-1.04-.015-2.04-3.338.724-4.042-1.61-4.042-1.61C4.422 18.07 3.633 17.7 3.633 17.7c-1.087-.744.084-.729.084-.729 1.205.084 1.838 1.236 1.838 1.236 1.07 1.835 2.809 1.305 3.495.998.108-.776.417-1.305.76-1.605-2.665-.3-5.466-1.332-5.466-5.93 0-1.31.465-2.38 1.235-3.22-.135-.303-.54-1.523.105-3.176 0 0 1.005-.322 3.3 1.23.96-.267 1.98-.399 3-.405 1.02.006 2.04.138 3 .405 2.28-1.552 3.285-1.23 3.285-1.23.645 1.653.24 2.873.12 3.176.765.84 1.23 1.91 1.23 3.22 0 4.61-2.805 5.625-5.475 5.92.42.36.81 1.096.81 2.22 0 1.606-.015 2.896-.015 3.286 0 .315.21.69.825.57C20.565 22.092 24 17.592 24 12.297c0-6.627-5.373-12-12-12"/>
        </symbol>
        <symbol id="icon-tailwind" viewBox="0 0 24 24">
            <path d="M12.001,4.8c-3.2,0-5.2,1.6-6,4.8c1.2-1.6,2.6-2.2,4.2-1.8c0.913,0.228,1.565,0.89,2.288,1.624 C13.666,10.618,15.027,12,18.001,12c3.2,0,5.2-1.6,6-4.8c-1.2,1.6-2.6,2.2-4.2,1.8c-0.913-0.228-1.565-0.89-2.288-1.624 C16.337,6.182,14.976,4.8,12.001,4.8z M6.001,12c-3.2,0-5.2,1.6-6,4.8c1.2-1.6,2.6-2.2,4.2-1.8c0.913,0.228,1.565,0.89,2.288,1.624 c1.177,1.194,2.538,2.576,5.512,2.576c3.2,0,5.2-1.6,6-4.8c-1.2,1.6-2.6,2.2-4.2,1.8c-0.913-0.228-1.565-0.89-2.288-1.624 C10.337,13.382,8.976,12,6.001,12z"/>
        </symbol>
        <symbol id="icon-html" viewBox="0 0 512 512">
            <path d="m71.197 46 33.604 377.479L255.474 466l151.725-42.521L440.803 46H71.197zM367.82 169.11H190.905l3.929 47.519h169.058l-13.137 142.792-94.236 25.99v.268h-1.045l-95.029-26.258-5.775-72.975h45.939l3.41 36.754 51.455 13.914 51.707-13.914 5.782-59.846H152.312l-12.335-140.176h232.047l-4.204 45.932z"/>    
        </symbol>
        <symbol id="icon-arrow-right" viewBox="0 0 32 32">
            <path d="m19.414 27.414 10-10a2 2 0 0 0 0-2.828l-10-10a2 2 0 1 0-2.828 2.828L23.172 14H4a2 2 0 1 0 0 4h19.172l-6.586 6.586c-.39.39-.586.902-.586 1.414s.195 1.024.586 1.414a2 2 0 0 0 2.828 0z"/>
        </symbol>
        <symbol id="icon-copy" viewBox="0 0 24 24">
            <path d="M18.984 21V6.984H8.015V21h10.969zm0-15.984q.797 0 1.406.586t.609 1.383v14.016q0 .797-.609 1.406t-1.406.609H8.015q-.797 0-1.406-.609T6 21.001V6.985q0-.797.609-1.383t1.406-.586h10.969zm-3-4.032V3h-12v14.016H2.015V3q0-.797.586-1.406T3.984.985h12z"/>
        </symbol>
        <symbol id="icon-sunset" viewBox="0 0 24 24">
            <path d="M18 18c0-1.657-.673-3.158-1.757-4.243S13.657 12 12 12s-3.158.673-4.243 1.757S6 16.343 6 18a1 1 0 0 0 2 0c0-1.105.447-2.103 1.172-2.828S10.895 14 12 14s2.103.447 2.828 1.172S16 16.895 16 18a1 1 0 0 0 2 0zM3.513 10.927l1.42 1.42a.999.999 0 1 0 1.414-1.414l-1.42-1.42a.999.999 0 1 0-1.414 1.414zM1 19h2a1 1 0 0 0 0-2H1a1 1 0 0 0 0 2zm20 0h2a1 1 0 0 0 0-2h-2a1 1 0 0 0 0 2zm-1.933-6.653 1.42-1.42a.999.999 0 1 0-1.414-1.414l-1.42 1.42a.999.999 0 1 0 1.414 1.414zM23 21H1a1 1 0 0 0 0 2h22a1 1 0 0 0 0-2zM15.293 4.293 13 6.586V2a1 1 0 0 0-2 0v4.586L8.707 4.293a.999.999 0 1 0-1.414 1.414l4 4a.998.998 0 0 0 1.414 0l4-4a.999.999 0 1 0-1.414-1.414z"/>
        </symbol>
        <symbol id="icon-sunrise" viewBox="0 0 24 24">
            <path d="M18 18c0-1.657-.673-3.158-1.757-4.243S13.657 12 12 12s-3.158.673-4.243 1.757S6 16.343 6 18a1 1 0 0 0 2 0c0-1.105.447-2.103 1.172-2.828S10.895 14 12 14s2.103.447 2.828 1.172S16 16.895 16 18a1 1 0 0 0 2 0zM3.513 10.927l1.42 1.42a.999.999 0 1 0 1.414-1.414l-1.42-1.42a.999.999 0 1 0-1.414 1.414zM1 19h2a1 1 0 0 0 0-2H1a1 1 0 0 0 0 2zm20 0h2a1 1 0 0 0 0-2h-2a1 1 0 0 0 0 2zm-1.933-6.653 1.42-1.42a.999.999 0 1 0-1.414-1.414l-1.42 1.42a.999.999 0 1 0 1.414 1.414zM23 21H1a1 1 0 0 0 0 2h22a1 1 0 0 0 0-2zM8.707 6.707 11 4.414V9a1 1 0 0 0 2 0V4.414l2.293 2.293a.999.999 0 1 0 1.414-1.414l-4-4a1.006 1.006 0 0 0-1.414 0l-4 4a.999.999 0 1 0 1.414 1.414z"/>
        </symbol>
    </defs>
</svg>
